<svg width="600" height="600" viewBox="0 0 600 600" fill="none"
    xmlns="http://www.w3.org/2000/svg">
    <path d="M300 0L559.808 150V450L300 600L40.1924 450V150L300 0Z" fill="#fff"/>
    <path d="M442.239 305C447.439 306.6 451.906 310.133 455.639 315.6C459.372 320.933 461.239 327.067 461.239 334C461.239 348.8 456.439 359.867 446.839 367.2C437.239 374.4 423.239 378 404.839 378H322.439C320.972 378 319.706 377.467 318.639 376.4C317.572 375.333 317.039 374.067 317.039 372.6V243.4C317.039 241.933 317.572 240.667 318.639 239.6C319.706 238.533 320.972 238 322.439 238H402.839C421.772 238 435.706 241.467 444.639 248.4C453.706 255.2 458.239 265.533 458.239 279.4V280C458.239 286.4 456.506 291.867 453.039 296.4C449.572 300.933 445.972 303.8 442.239 305ZM404.039 281.2C404.039 278.8 403.306 276.733 401.839 275C400.506 273.267 398.506 272.4 395.839 272.4H369.039V290.6H395.839C398.506 290.6 400.506 289.667 401.839 287.8C403.306 285.8 404.039 283.6 404.039 281.2ZM398.039 343.6C401.106 343.6 403.372 342.6 404.839 340.6C406.439 338.467 407.239 336.133 407.239 333.6V333.4C407.239 330.867 406.372 328.667 404.639 326.8C403.039 324.933 400.839 324 398.039 324H369.039V343.6H398.039Z" fill="#FF7324"/>
    <path d="M241.239 243.4C243.239 239.8 246.106 238 249.839 238H286.439C287.906 238 289.172 238.533 290.239 239.6C291.306 240.667 291.839 241.933 291.839 243.4V372.6C291.839 374.067 291.306 375.333 290.239 376.4C289.172 377.467 287.906 378 286.439 378H250.239C248.772 378 247.506 377.467 246.439 376.4C245.372 375.333 244.839 374.067 244.839 372.6V310.6L230.239 339.4C229.839 340.333 228.906 341.4 227.439 342.6C225.972 343.8 224.106 344.4 221.839 344.4H208.239C205.972 344.4 204.106 343.8 202.639 342.6C201.172 341.4 200.239 340.333 199.839 339.4L185.239 310.6V372.6C185.239 374.067 184.706 375.333 183.639 376.4C182.572 377.467 181.306 378 179.839 378H143.639C142.172 378 140.906 377.467 139.839 376.4C138.772 375.333 138.239 374.067 138.239 372.6V243.4C138.239 241.933 138.772 240.667 139.839 239.6C140.906 238.533 142.172 238 143.639 238H180.239C183.972 238 186.839 239.8 188.839 243.4L215.039 291.4L241.239 243.4Z" fill="#FF7324"/>
</svg>
